<?xml version="1.0" encoding="utf-8"?>
<!-- Generator: Adobe Illustrator 17.0.0, SVG Export Plug-In . SVG Version: 6.00 Build 0)  -->
<!DOCTYPE svg PUBLIC "-//W3C//DTD SVG 1.1//EN" "http://www.w3.org/Graphics/SVG/1.1/DTD/svg11.dtd">
<svg version="1.1" id="Layer_1" xmlns="http://www.w3.org/2000/svg" xmlns:xlink="http://www.w3.org/1999/xlink" x="0px" y="0px"
	 width="155px" height="35px" viewBox="0 0 155 35" enable-background="new 0 0 155 35" xml:space="preserve">
<path display="none" fill="#1B7EBA" d="M0,6h129.996v114.996l-65.319-10L0,120.996V6z"/>
<path display="none" fill="#2697DE" d="M-101.835-93.218h333.666v305.432L64.174,186.547l-166.009,25.667V-93.218z"/>
<text transform="matrix(1 0 0 1 49.8677 22.9809)" font-family="'Helvetica'" font-size="13.3316">The Giving Cycle</text>
<g>
	<path fill="#FDBF16" d="M26.882,28.774c-0.046-0.03-0.059-0.078-0.081-0.119c-0.535-1.039-1.073-2.076-1.602-3.119
		c-0.732-1.445-1.457-2.894-2.185-4.342c-0.104-0.206-0.103-0.206-0.339-0.206c-0.742,0-1.483,0.004-2.225-0.001
		c-0.405-0.003-0.806-0.045-1.197-0.161c-0.379-0.113-0.726-0.284-0.997-0.582c-0.129-0.141-0.233-0.298-0.286-0.503
		c1.428-0.024,2.846-0.027,4.28-0.032c-0.056-0.158-0.135-0.286-0.201-0.421c-0.015-0.032-0.044-0.032-0.073-0.033
		c-0.038-0.001-0.076,0-0.114,0c-1.236-0.001-2.472,0.008-3.708-0.006c-0.706-0.008-1.401-0.111-2.065-0.368
		c-0.335-0.13-0.645-0.302-0.916-0.541c-0.18-0.159-0.33-0.342-0.439-0.556c-0.032-0.062-0.067-0.125-0.068-0.216
		c0.077,0,0.152,0,0.226,0c0.228-0.001,0.456-0.001,0.684-0.003c1.687-0.019,3.375-0.02,5.062-0.026
		c0.148,0,0.295-0.003,0.442-0.003c0.054,0,0.07-0.026,0.047-0.072c-0.054-0.111-0.111-0.221-0.166-0.331
		c-0.017-0.034-0.041-0.05-0.079-0.049c-0.038,0.001-0.076,0-0.114,0c-1.588,0-3.176,0.002-4.764-0.001
		c-0.714-0.001-1.424-0.05-2.125-0.196c-0.613-0.128-1.201-0.323-1.736-0.66c-0.367-0.231-0.682-0.516-0.908-0.89
		c-0.069-0.113-0.129-0.231-0.163-0.368c0.049-0.026,0.096-0.017,0.141-0.017c1.012-0.004,2.025,0.001,3.038-0.011
		c1.811-0.022,3.622-0.016,5.433-0.027c0.041,0,0.085,0.011,0.131-0.025c-0.04-0.115-0.105-0.219-0.157-0.328
		c-0.014-0.029-0.038-0.04-0.069-0.04c-0.043,0-0.085,0-0.128,0c-2.13,0-4.26,0.003-6.389-0.001
		c-0.905-0.002-1.803-0.087-2.682-0.312c-0.597-0.154-1.167-0.373-1.685-0.714c-0.369-0.243-0.69-0.535-0.933-0.909
		c-0.081-0.124-0.151-0.253-0.199-0.393c-0.035-0.102-0.028-0.113,0.084-0.113c0.461-0.003,0.922-0.004,1.383-0.006
		c1.041-0.003,2.082,0.002,3.123-0.011c1.797-0.022,3.594-0.015,5.39-0.027c0.238-0.001,0.475-0.006,0.713-0.01
		c0.028,0,0.057,0.004,0.089-0.018c-0.035-0.116-0.104-0.218-0.156-0.329c-0.015-0.031-0.042-0.035-0.071-0.036
		c-0.038-0.001-0.076,0-0.114,0c-2.025,0-4.051,0.002-6.076-0.001c-0.895-0.001-1.785-0.068-2.662-0.255
		c-0.687-0.146-1.349-0.36-1.958-0.718c-0.418-0.246-0.789-0.546-1.07-0.948C6.142,9.562,6.044,9.4,6,9.215
		c0.046-0.033,0.09-0.02,0.131-0.02C7.315,9.19,8.498,9.188,9.682,9.183c2.025-0.009,4.05-0.018,6.075-0.029
		c0.984-0.005,1.968-0.013,2.952-0.023c0.082-0.001,0.157,0.034,0.238,0.031c0.047-0.002,0.055,0.047,0.073,0.078
		c0.068,0.126,0.133,0.252,0.2,0.378c0.925,1.736,1.796,3.5,2.68,5.257c0.748,1.485,1.495,2.971,2.242,4.456
		c0.73,1.452,1.46,2.903,2.191,4.355c0.162,0.323,0.326,0.645,0.489,0.967c0.015,0.029,0.032,0.057,0.042,0.075
		c0.019,0.016,0.027,0.015,0.032,0.002c0.233-0.563,0.532-1.093,0.803-1.637c0.402-0.808,0.814-1.612,1.221-2.417
		c1.133-2.238,2.265-4.477,3.4-6.714c0.632-1.245,1.272-2.487,1.906-3.732c0.135-0.267,0.247-0.545,0.387-0.81
		c0.138-0.26,0.138-0.246,0.431-0.265c0.74-0.047,1.481-0.018,2.221-0.011c1.711,0.015,3.423,0.006,5.134,0.023
		c1.588,0.016,3.175,0.017,4.763,0.024c0.275,0.001,0.551,0,0.819,0c0.04,0.056,0.006,0.094-0.008,0.13
		c-0.095,0.236-0.237,0.444-0.405,0.633c-0.4,0.449-0.899,0.758-1.445,0.994c-0.592,0.256-1.212,0.415-1.847,0.519
		c-0.79,0.129-1.586,0.172-2.386,0.171c-2.049-0.001-4.098,0-6.147,0c-0.043,0-0.085,0.001-0.128,0.001
		c-0.031,0-0.056,0.012-0.07,0.04c-0.052,0.105-0.104,0.21-0.165,0.334c0.135,0.004,0.248,0.009,0.36,0.009
		c1.493,0.008,2.985,0.015,4.478,0.022c0.461,0.002,0.922,0,1.383,0.008c1.283,0.022,2.567,0.012,3.85,0.021
		c0.29,0.002,0.58,0.001,0.87,0.004c0.141,0.001,0.148,0.011,0.096,0.147c-0.095,0.252-0.246,0.471-0.423,0.672
		c-0.398,0.451-0.896,0.761-1.444,0.995c-0.58,0.248-1.187,0.398-1.809,0.492c-0.673,0.102-1.351,0.139-2.031,0.138
		c-2.14-0.001-4.279-0.001-6.418,0c-0.043,0-0.085,0.001-0.128,0c-0.032,0-0.056,0.013-0.07,0.04
		c-0.053,0.105-0.105,0.21-0.163,0.328c0.137,0.026,0.259,0.024,0.379,0.024c1.198,0.006,2.396,0.009,3.594,0.013
		c0.509,0.002,1.017-0.001,1.526,0.008c1.112,0.02,2.225,0.012,3.337,0.018c0.051,0,0.103-0.007,0.16,0.015
		c-0.023,0.123-0.077,0.228-0.135,0.33c-0.221,0.384-0.535,0.676-0.904,0.913c-0.502,0.324-1.055,0.518-1.633,0.649
		c-0.539,0.122-1.086,0.182-1.637,0.208c-0.423,0.02-0.846,0.017-1.269,0.017c-1.46,0.001-2.919,0.002-4.379-0.002
		c-0.118,0-0.184,0.033-0.224,0.141c-0.037,0.101-0.106,0.189-0.144,0.313c2.248,0.01,4.484,0.01,6.724,0.039
		c0.027,0.064-0.012,0.113-0.033,0.161c-0.121,0.265-0.305,0.48-0.529,0.663c-0.41,0.335-0.887,0.529-1.394,0.656
		c-0.565,0.143-1.141,0.199-1.722,0.2c-1.26,0.002-2.52,0.002-3.78-0.002c-0.11,0-0.179,0.022-0.216,0.132
		c-0.036,0.105-0.112,0.195-0.144,0.323c1.514,0.006,3.013,0.007,4.511,0.033c0.011,0.067-0.019,0.112-0.041,0.158
		c-0.15,0.324-0.404,0.548-0.711,0.716c-0.325,0.178-0.678,0.272-1.042,0.322c-0.292,0.04-0.586,0.052-0.881,0.052
		c-0.784-0.002-1.569,0.002-2.353-0.004c-0.111-0.001-0.167,0.033-0.217,0.133c-0.757,1.507-1.519,3.012-2.28,4.517
		c-0.515,1.017-1.03,2.035-1.545,3.052C26.932,28.715,26.925,28.751,26.882,28.774z"/>
	<g>
		<path fill="#FDC017" d="M20.138,6.885c0.237-0.033,0.465-0.064,0.694-0.095c0.169-0.023,0.338-0.048,0.508-0.067
			c0.078-0.009,0.125-0.044,0.161-0.117c0.159-0.324,0.323-0.645,0.487-0.967c0.018-0.037,0.026-0.083,0.073-0.102
			c0.047,0.05,0.066,0.115,0.095,0.173c0.147,0.303,0.294,0.606,0.436,0.912c0.034,0.074,0.079,0.102,0.16,0.113
			c0.381,0.053,0.76,0.115,1.139,0.174c0.013,0.002,0.025,0.011,0.036,0.016c0.013,0.046-0.024,0.061-0.045,0.082
			c-0.247,0.237-0.489,0.478-0.744,0.706c-0.109,0.097-0.14,0.192-0.113,0.334c0.062,0.321,0.11,0.645,0.161,0.969
			c0.007,0.044,0.028,0.09,0.006,0.139c-0.054,0.002-0.09-0.032-0.131-0.054c-0.31-0.165-0.621-0.329-0.928-0.5
			c-0.075-0.041-0.133-0.045-0.209-0.004c-0.323,0.171-0.649,0.336-0.975,0.502c-0.032,0.016-0.061,0.046-0.113,0.033
			c0.048-0.265,0.095-0.53,0.143-0.795c0.024-0.131,0.045-0.262,0.072-0.392c0.016-0.078-0.004-0.133-0.061-0.189
			c-0.255-0.249-0.506-0.501-0.758-0.753C20.198,6.972,20.156,6.946,20.138,6.885z"/>
		<path fill="#FDC017" d="M28.061,7.615c-0.059,0.013-0.096-0.023-0.136-0.045c-0.306-0.163-0.613-0.323-0.915-0.494
			c-0.091-0.051-0.158-0.048-0.247,0c-0.301,0.162-0.606,0.316-0.911,0.471c-0.045,0.023-0.087,0.057-0.148,0.059
			c0.004-0.135,0.04-0.263,0.062-0.393c0.047-0.276,0.097-0.551,0.153-0.825c0.015-0.074-0.015-0.115-0.062-0.16
			c-0.241-0.236-0.481-0.473-0.72-0.71c-0.046-0.045-0.1-0.085-0.133-0.152c0.09-0.043,0.183-0.037,0.27-0.05
			c0.31-0.046,0.62-0.086,0.931-0.123c0.074-0.009,0.118-0.038,0.151-0.106c0.157-0.32,0.32-0.636,0.48-0.954
			C26.858,4.089,26.88,4.047,26.905,4c0.05,0.018,0.056,0.065,0.073,0.099c0.156,0.32,0.311,0.64,0.462,0.963
			c0.039,0.083,0.083,0.131,0.185,0.144c0.343,0.045,0.684,0.105,1.027,0.157c0.05,0.008,0.101,0.011,0.15,0.037
			c-0.021,0.051-0.061,0.078-0.095,0.11c-0.254,0.243-0.505,0.489-0.763,0.728c-0.069,0.064-0.082,0.126-0.066,0.213
			c0.065,0.369,0.123,0.739,0.183,1.109C28.063,7.578,28.061,7.597,28.061,7.615z"/>
		<path fill="#FDC017" d="M32.915,9.15c-0.058,0.006-0.095-0.029-0.135-0.051c-0.302-0.161-0.605-0.319-0.903-0.487
			c-0.088-0.049-0.156-0.054-0.248-0.005c-0.305,0.165-0.615,0.319-0.924,0.478c-0.041,0.021-0.084,0.041-0.14,0.068
			c0.01-0.184,0.055-0.348,0.082-0.514c0.038-0.229,0.082-0.458,0.126-0.686c0.016-0.082-0.003-0.14-0.066-0.201
			c-0.253-0.244-0.5-0.494-0.749-0.743c-0.033-0.033-0.071-0.061-0.098-0.118c0.071-0.013,0.133-0.027,0.196-0.035
			c0.315-0.043,0.63-0.087,0.946-0.124c0.118-0.014,0.193-0.055,0.247-0.171c0.137-0.298,0.291-0.587,0.439-0.879
			c0.025-0.049,0.053-0.097,0.08-0.146c0.049,0.025,0.054,0.065,0.07,0.097c0.157,0.325,0.317,0.649,0.469,0.976
			c0.039,0.083,0.085,0.118,0.178,0.131c0.376,0.051,0.751,0.113,1.126,0.172c0.013,0.002,0.026,0.01,0.044,0.018
			c0.001,0.044-0.034,0.063-0.06,0.088c-0.261,0.25-0.52,0.501-0.784,0.747c-0.065,0.06-0.092,0.114-0.075,0.208
			c0.062,0.336,0.112,0.674,0.167,1.011C32.914,9.038,32.927,9.094,32.915,9.15z"/>
	</g>
	<g>
		<path fill="#FDC017" d="M43.813,19.376c0.156-0.331,0.298-0.632,0.44-0.934c0.055,0.029,0.04,0.067,0.044,0.097
			c0.03,0.269,0.059,0.538,0.088,0.807c0.017,0.151,0.027,0.165,0.161,0.215c-0.07,0.029-0.13,0.009-0.188,0.012
			c-0.064,0.004-0.088-0.018-0.092-0.088c-0.012-0.204-0.035-0.406-0.054-0.61c-0.002-0.026,0.002-0.055-0.037-0.092
			c-0.128,0.268-0.25,0.526-0.387,0.813c-0.158-0.273-0.272-0.534-0.408-0.821c-0.033,0.095-0.025,0.161-0.032,0.223
			c-0.015,0.141-0.028,0.283-0.039,0.425c-0.007,0.087-0.005,0.087,0.072,0.147c-0.086,0-0.168,0-0.251,0
			c0.072-0.03,0.076-0.091,0.083-0.152c0.03-0.278,0.06-0.557,0.09-0.835c0.005-0.046,0.001-0.095,0.045-0.153
			C43.502,18.741,43.65,19.044,43.813,19.376z"/>
		<path fill="#FDC017" d="M42.974,18.629c-0.086-0.135-0.218-0.089-0.335-0.098c-0.033-0.002-0.048,0.025-0.049,0.057
			c-0.001,0.033-0.001,0.066-0.001,0.1c0.002,0.232,0.002,0.465,0.007,0.697c0.002,0.121,0.012,0.133,0.106,0.187
			c-0.108,0-0.209,0-0.311,0c0.065-0.032,0.064-0.092,0.065-0.146c0.005-0.27,0.006-0.541,0.008-0.811
			c0-0.04-0.005-0.074-0.055-0.085c-0.102-0.023-0.268,0.013-0.345,0.079c-0.022-0.019-0.01-0.041-0.005-0.062
			c0.024-0.099,0.024-0.094,0.127-0.091c0.213,0.005,0.427,0.006,0.64,0.005C42.985,18.459,42.985,18.457,42.974,18.629z"/>
	</g>
</g>
</svg>
